Coordinates
version=1
nRows=8
nColumns=33
inDegrees=yes

Units are S.I. units (second, meters, Newtons, ...)
Angles are in degrees.

endheader
time	ground_thorax_rot_x	ground_thorax_rot_y	ground_thorax_rot_z	ground_thorax_tx	ground_thorax_ty	ground_thorax_tz	clav_prot_r	clav_elev_r	scapula_abduction_r	scapula_elevation_r	scapula_upward_rot_r	scapula_winging_r	shoulder_elv_r	plane_of_elev_r	axial_rot_r	elbow_flexion_r	pro_sup_r	wrist_flex_r	wrist_dev_r	clav_prot_l	clav_elev_l	scapula_abduction_l	scapula_elevation_l	scapula_upward_rot_l	scapula_winging_l	shoulder_elv_l	plane_of_elev_l	axial_rot_l	elbow_flexion_l	pro_sup_l	wrist_flex_l	wrist_dev_l
      9.84000000	     23.12440240	     33.04225270	     51.85375763	    -31.68596469	    823.82287343	    -44.59744757	     13.33611996	     35.23539806	     28.94798321	     45.00000000	    -45.00000000	   2433.91430844	   -648.27226258	     22.42624503	   -168.92905498	   1438.26618211	   -189.69232464	     13.80831766	     14.63379814	     -9.61511937	    -45.00000000	    -38.63739096	     45.00000000	    -45.00000000	   4783.20282275	  -5322.17329918	     26.85544299	     35.25643507	    -11.07061221	    404.03791589	     14.41702504	    -18.10815484
      9.85000000	     22.94464354	     33.22045888	     52.14845997	    -29.85942942	    822.63786638	    -44.51670471	     13.46187640	     35.13746381	     28.84795535	     45.00000000	    -45.00000000	   2434.05064859	   -648.36029463	     22.43804117	   -169.19063308	   1438.35801469	   -189.27175318	     13.70983721	     14.64839600	     -9.70960447	    -45.00000000	    -38.58644290	     45.00000000	    -45.00000000	   4783.11856386	  -5322.23649747	     26.82706671	     35.25555486	    -11.10897176	    404.30228846	     14.36446450	    -17.98945306
      9.86000000	     22.65096265	     33.48668518	     52.56382703	    -28.05891363	    821.44008225	    -44.43182966	     13.46083388	     35.10244797	     28.48850264	     45.00000000	    -45.00000000	   2434.30491816	   -648.21686226	     22.35119074	   -169.15624497	   1438.26471214	   -188.89076966	     13.60215318	     14.53448080	     -9.85177343	    -45.00000000	    -38.47753660	     45.00000000	    -45.00000000	   4782.85311110	  -5322.23129349	     26.63766206	     35.01846582	    -11.02688570	    404.51308997	     14.15109303	    -17.67411885
      9.87000000	     22.55569909	     33.58328750	     52.77985795	    -26.29111784	    820.22995188	    -44.34167566	     13.46176709	     35.12500398	     28.56909495	     45.00000000	    -45.00000000	   2434.32036800	   -648.43663704	     22.42317738	   -169.21973776	   1438.39066169	   -188.57731622	     13.58004952	     14.48556570	     -9.91499852	    -45.00000000	    -38.41436520	     45.00000000	    -45.00000000	   4782.95169708	  -5322.42758806	     26.74553514	     34.92388056	    -11.12030334	    404.68857561	     14.21330108	    -17.67852098
      9.88000000	     22.37645100	     33.74491323	     53.06494785	    -24.55270664	    819.00256987	    -44.24318061	     13.44146160	     35.19045470	     28.38533789	     45.00000000	    -45.00000000	   2434.60532744	   -648.36325684	     22.29412536	   -169.17936027	   1438.34095835	   -188.21274847	     13.45880663	     14.47291601	    -10.09880646	    -45.00000000	    -38.29303890	     45.00000000	    -45.00000000	   4782.71993124	  -5322.43386363	     26.55033042	     34.82856643	    -11.09163787	    404.86369372	     14.05329716	    -17.41389021
      9.89000000	     22.27427284	     33.83193380	     53.27420494	    -22.84942049	    817.76073004	    -44.13306030	     13.43466243	     35.13563993	     28.46931974	     45.00000000	    -45.00000000	   2434.57597084	   -648.60774888	     22.41315280	   -169.22923840	   1438.56600909	   -187.92248882	     13.43927027	     14.37379444	    -10.15692426	    -45.00000000	    -38.26150032	     45.00000000	    -45.00000000	   4782.87956951	  -5322.63166027	     26.69048439	     34.72321664	    -11.16483156	    404.99596015	     14.13105459	    -17.44423385
      9.90000000	     22.11988912	     33.97444992	     53.53263739	    -21.18091106	    816.50428182	    -44.00804567	     13.40431535	     35.30787077	     28.28778343	     45.00000000	    -45.00000000	   2434.90618962	   -648.47971473	     22.22733548	   -169.17425307	   1438.46926677	   -187.57352126	     13.30183033	     14.43378551	    -10.32836216	    -45.00000000	    -38.05868177	     45.00000000	    -45.00000000	   4782.63034695	  -5322.64090456	     26.46295732	     34.60394047	    -11.03168210	    405.11757168	     13.95300042	    -17.19089616
      9.91000000	     21.99064608	     34.09408148	     53.78504401	    -19.54471975	    815.23338691	    -43.86663068	     13.42183766	     35.15182317	     28.32024540	     45.00000000	    -45.00000000	   2434.77601549	   -648.73331957	     22.40891330	   -169.20306818	   1438.65202495	   -187.33005335	     13.31910057	     14.29590516	    -10.40658198	    -45.00000000	    -38.03996932	     45.00000000	    -45.00000000	   4782.83264022	  -5322.85789730	     26.59780882	     34.43850561	    -11.09495484	    405.21837602	     14.03667947	    -17.22251790
